<svg width="24" height="24" viewBox="0 0 24 24" fill="none" xmlns="http://www.w3.org/2000/svg">
<rect width="24" height="24" rx="4" fill="url(#paint0_linear_484_1479)"/>
<path d="M12.003 8.40626C10.0155 8.40626 8.4124 10.0094 8.4124 11.9969C8.4124 13.9844 10.0155 15.5875 12.003 15.5875C13.9905 15.5875 15.5937 13.9844 15.5937 11.9969C15.5937 10.0094 13.9905 8.40626 12.003 8.40626ZM12.003 14.3313C10.7187 14.3313 9.66865 13.2844 9.66865 11.9969C9.66865 10.7094 10.7155 9.66251 12.003 9.66251C13.2905 9.66251 14.3374 10.7094 14.3374 11.9969C14.3374 13.2844 13.2874 14.3313 12.003 14.3313V14.3313ZM16.578 8.25938C16.578 8.72501 16.203 9.09688 15.7405 9.09688C15.2749 9.09688 14.903 8.72188 14.903 8.25938C14.903 7.79688 15.278 7.42188 15.7405 7.42188C16.203 7.42188 16.578 7.79688 16.578 8.25938ZM18.9562 9.10938C18.903 7.98751 18.6468 6.99376 17.8249 6.17501C17.0062 5.35626 16.0124 5.10001 14.8905 5.04376C13.7343 4.97813 10.2687 4.97813 9.1124 5.04376C7.99365 5.09688 6.9999 5.35313 6.17803 6.17188C5.35615 6.99063 5.10303 7.98438 5.04678 9.10626C4.98115 10.2625 4.98115 13.7281 5.04678 14.8844C5.0999 16.0063 5.35615 17 6.17803 17.8188C6.9999 18.6375 7.99053 18.8938 9.1124 18.95C10.2687 19.0156 13.7343 19.0156 14.8905 18.95C16.0124 18.8969 17.0062 18.6406 17.8249 17.8188C18.6437 17 18.8999 16.0063 18.9562 14.8844C19.0218 13.7281 19.0218 10.2656 18.9562 9.10938V9.10938ZM17.4624 16.125C17.2187 16.7375 16.7468 17.2094 16.1312 17.4563C15.2093 17.8219 13.0218 17.7375 12.003 17.7375C10.9843 17.7375 8.79365 17.8188 7.8749 17.4563C7.2624 17.2125 6.79053 16.7406 6.54365 16.125C6.17803 15.2031 6.2624 13.0156 6.2624 11.9969C6.2624 10.9781 6.18115 8.78751 6.54365 7.86876C6.7874 7.25626 7.25928 6.78438 7.8749 6.53751C8.79678 6.17188 10.9843 6.25626 12.003 6.25626C13.0218 6.25626 15.2124 6.17501 16.1312 6.53751C16.7437 6.78126 17.2155 7.25313 17.4624 7.86876C17.828 8.79063 17.7437 10.9781 17.7437 11.9969C17.7437 13.0156 17.828 15.2063 17.4624 16.125Z" fill="white"/>
<defs>
<linearGradient id="paint0_linear_484_1479" x1="24" y1="-7.15256e-07" x2="7.15256e-07" y2="24" gradientUnits="userSpaceOnUse">
<stop stop-color="#A031C3"/>
<stop offset="0.786458" stop-color="#EA8F67"/>
<stop offset="1" stop-color="#FEA94E"/>
</linearGradient>
</defs>
</svg>
